<mxfile host="65bd71144e">
    <diagram id="GXkg2spcU0_9qdf4kvN4" name="Page-1">
        <mxGraphModel dx="3622" dy="2658" grid="1" gridSize="10" guides="1" tooltips="1" connect="1" arrows="1" fold="1" page="1" pageScale="1" pageWidth="850" pageHeight="1100" math="0" shadow="0">
            <root>
                <mxCell id="0"/>
                <mxCell id="1" parent="0"/>
                <mxCell id="75" value="" style="rounded=1;whiteSpace=wrap;html=1;fontSize=25;fillColor=#fad7ac;strokeColor=#b46504;" vertex="1" parent="1">
                    <mxGeometry x="-440" y="-30" width="1620" height="1450" as="geometry"/>
                </mxCell>
                <mxCell id="34" style="edgeStyle=none;html=1;exitX=-0.004;exitY=0.628;exitDx=0;exitDy=0;exitPerimeter=0;strokeWidth=5;" parent="1" source="15" target="2" edge="1">
                    <mxGeometry relative="1" as="geometry">
                        <mxPoint x="680" y="140" as="targetPoint"/>
                    </mxGeometry>
                </mxCell>
                <mxCell id="35" style="edgeStyle=none;html=1;exitX=0;exitY=0.5;exitDx=0;exitDy=0;strokeWidth=5;" parent="1" source="16" target="2" edge="1">
                    <mxGeometry relative="1" as="geometry">
                        <mxPoint x="600" y="310" as="targetPoint"/>
                    </mxGeometry>
                </mxCell>
                <mxCell id="2" value="&lt;font style=&quot;font-size: 30px;&quot;&gt;API REST&lt;br&gt;Vitivinicultura Embrapa&lt;/font&gt;" style="rounded=0;whiteSpace=wrap;html=1;verticalAlign=top;" parent="1" vertex="1">
                    <mxGeometry x="40" y="100" width="540" height="380" as="geometry"/>
                </mxCell>
                <mxCell id="5" value="&lt;font style=&quot;font-size: 18px;&quot;&gt;Produção&lt;/font&gt;" style="rounded=0;whiteSpace=wrap;html=1;" parent="1" vertex="1">
                    <mxGeometry x="120" y="190" width="140" height="60" as="geometry"/>
                </mxCell>
                <mxCell id="6" value="&lt;font style=&quot;font-size: 18px;&quot;&gt;Processamento&lt;/font&gt;" style="rounded=0;whiteSpace=wrap;html=1;" parent="1" vertex="1">
                    <mxGeometry x="320" y="190" width="140" height="60" as="geometry"/>
                </mxCell>
                <mxCell id="7" value="&lt;font style=&quot;font-size: 18px;&quot;&gt;Comercialização&lt;/font&gt;" style="rounded=0;whiteSpace=wrap;html=1;" parent="1" vertex="1">
                    <mxGeometry x="120" y="280" width="140" height="60" as="geometry"/>
                </mxCell>
                <mxCell id="8" value="&lt;font style=&quot;font-size: 18px;&quot;&gt;Importação&lt;/font&gt;" style="rounded=0;whiteSpace=wrap;html=1;" parent="1" vertex="1">
                    <mxGeometry x="320" y="280" width="140" height="60" as="geometry"/>
                </mxCell>
                <mxCell id="9" value="&lt;font style=&quot;font-size: 18px;&quot;&gt;Exportação&lt;/font&gt;" style="rounded=0;whiteSpace=wrap;html=1;" parent="1" vertex="1">
                    <mxGeometry x="220" y="370" width="140" height="60" as="geometry"/>
                </mxCell>
                <UserObject label="&lt;font style=&quot;font-size: 25px;&quot;&gt;Website Embrapa - Dados&lt;font style=&quot;font-size: 25px;&quot;&gt; &lt;/font&gt;de Vitivinicultura&lt;/font&gt;" id="15">
                    <mxCell style="rounded=0;whiteSpace=wrap;html=1;verticalAlign=top;" parent="1" vertex="1">
                        <mxGeometry x="739.99" y="50" width="300" height="250" as="geometry"/>
                    </mxCell>
                </UserObject>
                <mxCell id="16" value="&lt;font style=&quot;font-size: 25px;&quot;&gt;Arquivos CSV&lt;/font&gt;" style="rounded=0;whiteSpace=wrap;html=1;verticalAlign=top;" parent="1" vertex="1">
                    <mxGeometry x="738.95" y="370" width="300" height="220" as="geometry"/>
                </mxCell>
                <mxCell id="17" value="" style="shape=image;verticalLabelPosition=bottom;labelBackgroundColor=default;verticalAlign=top;aspect=fixed;imageAspect=0;image=data:image/png,iVBORw0KGgoAAAANSUhEUgAAAOEAAADhCAMAAAAJbSJIAAAA9lBMVEX///+Nxj8AplHm5+jm5uYAAABtbnGLxTmmz3Pq6O3V4tcPqVAQp1Ph5d8AqlOt0oNzvkSIxDJudWhmZ2u5v7T7/fj3+/KDwiNraXOczVuFwywAoE4ATyaPx0GRyEfg787q9N6n0nDQ57UAmUsAYjCYy1S4247z+esAcjgAaTMAfz4AlEgAiUMAXC0APB2y2IOi0GYAUii93ZXm8thrZ3QADQYAFgsAezwAORw+sUuFsU10gWeJu0aDrFExrVZnvEUurk0ALRYAHw8AJhPQ57a61phscGp2h2V4jWJ7ll1/oFeKvkRxe2p6lF59nFqJkYWcxG1YuEfIEsclAAAM+UlEQVR4nO2daXvauBqGh7QgepJ64s5hMzEYEyABEihJs3TmTCZJ27Mv+f9/5hi8269Wy7K4Lp5PwSbgG0nvZln66aeDDjrooIMOOkilWq22r1ar6kuRq5kzdDer5ro3GQxsu2bbg8mkt26uNu7wZlb1xRVU68Zd9QY10zJN5KkWa/vS9I6jQW/lDttVX6iIWo67Qh0PIckFySO1Omjl3uxVz3XcZs2Do7ClOE2r1nSd/aAcTnsmF11MaU6mQ90hhyskRBdTotWwagi8nA2yiuAFkBaaOlWjQGp/W1tmYbwQsufqZl9nm1qh3pljNO2pTr7SaUprvgSkNbqpGizQcCRh9MGMax2szs1IavfMMlbejk6ZfDtGc+RUyNeedsrl2zF2ppXZVdeWb18gmTW3Ej5nooZvx9hzlPO1NiUZUFjImioOWIcDdQ3oyxwo9RwbSzHfVtZGGd+sp7oBfSkbja4CFwELdVQY1daqih4aylqVbnCSPRQVlAii2Ss55RjG12VOmkX09evX38RqHaXaVDfuoeb3D4X047Z7++tApBmtEgdjwkmg9Yd3hfSp0Wh0fxUhLNFtJG0M+lkCoYcoNBitVTmAo6QXlEPY6P5VzN6MSjCprXXKzUsibHT/Joa4lo7YysQxsggb3X8Leg3JiK1J5jqkETa6fxeKAdFEKmKrl/2h5RE2bv8j1IpIZitmxqBkwkb3H5WPxVG+H8kkFEYcyQJcAQNFKmHj9i9iiJL8IpjuyiVsdMUQ5UQ3LpgtSSZsNL6KIUqIUYdwOiidsCGUadSswpnGDPO98gm7YoioYL6Yd4SlETZ+iOWLBd0iZEbLImz8+KcIYjGDCluZsggbn5RnxLMO9mNLIex+skUQO+JDETcIyyL0MmIRRNQTBdwQgv5yCAXrGqag48d4wlIJBZN+Ma/YIg77sggFk/6BiMsg9dESCcUQRfrpDbl4Xx6hl/QLIFoON2G2bKGOsHErgMhvT11K8aRMwsatQEZscvr9Ns0vlUoolPTbfDM2prT6V7mEIhmxOeUBdPDhmhpCkbpGx+EgHFE/vmzCRpc76Ucchakbeo22dEKBuobJPgeO3oQqCLnrGuyNSAxIFRJyIzKHp2uGD1ZCyJv0szYiJV5TSOgl/XyIjLEbwyhURdjlrGugJgvgjGm+jBrCRvdfXIQ1i6WgMWXqGIoIeZN+lsCmzfZRqgi9pJ8LkSE6/cZ2R1YZIWddgyHFYHEVSgn5kn60pgE6jPPyFBLyTWagOgw2O6OWkKuuQbU1rB+llJBrMgMiA7KEpBUQ8tQ1KMHpSs829PQbKyEi34ti/qVUE3KUNRCpOjxknp5UmPC/v5RFSJxiy2pJJRB+/PELjzjqNohgTVsT1k8pTvju45+59D92azrBEzrsc+iKE/Lpw88cLtHBEtIK3ftCiI9Nmxx+VWNCfB7cYv4MvQlrNs5fsEbd2hNio2+OYag3IXYgModsuhNiAzeu5VZ0JsTlF23qDae9IezA1RrmzEl/QkwGxWNoNCfEmBoeQ6M5IcbUEGax7R0hPDOD6xaB3oS1AQSIm++8l4Tg3GiO1GlH+P5PKvXeI+SYmQne8GZ3Fnbt9O3x95NjlTr5/fHtlJ0RdBeszsKuvR2fnByp18nR8RsrI+guyHMRY71VghdCPjISQnMVmdyh/XRcHZ/P+MTSjKBDZErwH6vl2zGyNCOY5rPcVvujekAP8Q8GQuAmG/bpGN0AmRChoIZeK7U16KK+Th6pYxF4Spg8cX0L+KYLoIf4RkMECNsUQvu0aqyUTimIg3wOTJ0VrE0f3YpqUIE5GTTCU50APcRT2YT6mBlfNGMj0IZ6AXqIstvwSTvCJ25Coi21H6smyoncTQFbSvGHx1UD5XRMvF7I45Njmqp5AHETkuJSzdy9L5LTB4ttxNxCS0LC9YIT+Ij5oWb+fiuizwfzQ2KOv3eEUI5PrNNwEhqC53hEJATrNMRaGzuh4RGMF2P/j/ypfnDOiI75yrwROMhHCNXaiPVSVkKjf392V9/qy/VFP3WJxtHy6rUenLscB+fOfF0k32pc+geviIhEQrBeSqx5sxEaR+df6gldJRiN5XPyVP1sx9gPXyY/Jjz4RZwQrHkT71swERrLu3pad4uoN15mTtW/LL1zxnXwapn4LebBsXNxQnhNF1LYxkJo3Gch4ivPA3ry8KP/OUsQhtRj4tcRCcF7T8T7hwyE0U+fw/DOLaBTL0dxj7zrRx/UD3r6g7ilwdw/JDlEOqExBgHr1zvCM/CcZ1+iM/OoP8/js8KE8D1gkrtgIHyILvzq4uIyNiu7fhq+OLtfLufn4atnj3AZnokIQ2ZyJyUSYu7jk9wFlTC60vqV784iq3OdwFj4fm4cWtyF1ydfgr/DbtqP/0+YEDMXgzSfhk4YmofL4MLiodeP7MlLeC60O177GlfB3/eBTZqnXwsRYubTkOZEUQnDUfgcXVd06YvYYs79OCWinyfaN2izqJNSvpA8DmFAkqmhESYYokOLXWCzNBIU9Yf7/i4au/B0P1/u3veSRsqOSwFC7Lw2gqmhEn7OjKbtsfkyDC6Neqzr82U/GXhGXXbXLaNOuixAiJ2bSJhfSiUMLOlz6mC+x/rymnYcnww7eMqvkCM2CiF2filhjjB1HL6S+1Y/Fa/u3hkHdKFnGSfeSI66KYTYOcKENJ9G2A98w2fMhcUjMVYYdhoXwYFtABB20kUBQsLzzviBSCMc0356Y5lrxajBE9007KTPmI9hIiTM1ccnUKyEuDbcZo6fc4hBK8ahthF20ktqE5IIccPQE7ZmSiWk9FKf8TKbXfl9MRGJsndSAiHhmRn8c0/UcQhZmkwdYuseFvfXLwnC4AeJs4mz8A8qIJ6Q9NwT/tk1qrcI7OFr8tjZ2bwf+DxP/UV/90d/cRkF6S/hO4PXYUxKSSvIhMRn11qibRhfY3xse7l+tWb8+fr59a7+ELw3EZb7b48s7UP+U/gJyY/J4gI35qgt/vUT4fV99sKj8RZkSMmYp05PK4iElGdIcRkUc+R9F19c2E7jqIki/OhISJiOeeZFCGmL1Ai2YZwAh9Y0ilRfjTgBPsqeDFo1U+Vg6aT4NiQD4pYx48iAz3Zx9VFUt9hGKiH+69iPuMMs/yX699cEIMnlUAmpz+Njom+GKsZ1dIXX5+dxXWYLkShSXZ9fXsZdMgqBUrU4alpBIqQvwgPfZBOvRPk50St8Mo6+E930lfQ1NEL6uhiY2JSlmggE12EIAJ9LRrHJQhbbvRuYkGFtE3hOBlNFGCiYXmfzB+hk5g1snRRDyLJ6Imhr2Kr6i2xnjG0GUBBP55JRJ39lvP0GEjItngiuE8V6ZyYVWz8kW8MYp6vCzxmnlyvWCREyrRMF5sGs9/GNo3lwC+3hfJENvPsX0Z2380X2TqmxuDrfickZbgUQsq31Ba3XxjEXw4gFnzsinaTdFk0R5i0G61q70IJtzN+rTkATsi6cCAWnezEnin1Z73wj7sW8No4FTIH1S/dhbiLH+qXQSNSNMD8MedagBdYR3oM5wlzrCAOBjWazovL+nm8taCg61aoRgbn6nOt5QylG1VQp5a6Od012YGaGVs/M5B7RE9inJJ/s62NsADMjsDcCNFdR32fXhPZhgaa2a9GK0BNB8BwomqDwVAPEk7f8ZYnuvgb00+qfAz4GngMW3SsIM9Pt7ajKZ7mBBiyw3xO8Z5f/PL56Su87Mc/jF9izC7fvml17etxSqtTx4xPmAYtiuzyS9s57/1Gd3uNX/uCMR7Mi7X/4XqWwhIW3BSbsYakJYcE9LEn7kGpBWHwfUsJesjoQythLFr8fsAaEcvYDxu7pXD2hrD2dcftyV04ob19uzN7qVRPK3FsdcIvVExZ2hBTEygkR8KRvQURTK0JTbgvuENNjsWJCqWMwUsqiVktojsoA9PyipQmhJc0PZpWIbtD6wzuFgO/eJUydrEgGUiJGNb9/UKnv8RCRE4viNETRT2lOmuo0iQARkpBNkDRLmFSkTgkvUTgfpKk15VlQWbasVTlGNC23I7JztgyhTqlDMNasx7WYqzQp6KGRwKS4bJXpJPIaDlQ3ozko2YbmtLFUjkZkbVSYmLQchaPR7DnK+bZybTWMpq3IhObVnipwHKgz5ZxlIVWzkVkuIzJHToV8W92MSjQ5yBpxzFUrTaUxenyqPQROTtOSb3M0ab9Qs40tdUAi056qC9HY1P62ltaQprV2q7SfWDkbJGFEep8xdapGwWs4RSYqQOn990oX64LVcNozhcYkMs3JdKg+/BSR4zZti4sSmZbddJ2qL5xHLcddoY5F77LIg+uglevsR+Nl1B66q97AQ/C6LUqxbl+a3nE06K3coW5+gVezm6G7WTXXvclkYNs12x5MJr11c7Vxhzf7zpZRq9X21drLHnnQQQcddNBBe6z/A0nyMuO8hODfAAAAAElFTkSuQmCC;" parent="1" vertex="1">
                    <mxGeometry x="818.75" y="410" width="152.5" height="152.5" as="geometry"/>
                </mxCell>
                <mxCell id="68" value="Deploy" style="edgeStyle=none;html=1;strokeWidth=5;" parent="1" source="48" target="67" edge="1">
                    <mxGeometry relative="1" as="geometry"/>
                </mxCell>
                <mxCell id="48" value="&lt;font style=&quot;font-size: 30px;&quot;&gt;Machine Learing Pipeline&lt;/font&gt;" style="rounded=0;whiteSpace=wrap;html=1;verticalAlign=top;" parent="1" vertex="1">
                    <mxGeometry x="40" y="610" width="540" height="310" as="geometry"/>
                </mxCell>
                <mxCell id="57" value="" style="edgeStyle=none;html=1;" parent="1" source="50" target="53" edge="1">
                    <mxGeometry relative="1" as="geometry"/>
                </mxCell>
                <mxCell id="50" value="&lt;font style=&quot;font-size: 18px;&quot;&gt;Coleta de Dados&lt;/font&gt;" style="rounded=0;whiteSpace=wrap;html=1;" parent="1" vertex="1">
                    <mxGeometry x="150" y="690" width="130" height="60" as="geometry"/>
                </mxCell>
                <mxCell id="51" value="JSON" style="endArrow=classic;html=1;entryX=0.5;entryY=0;entryDx=0;entryDy=0;strokeWidth=5;" parent="1" source="2" target="48" edge="1">
                    <mxGeometry x="-0.0005" width="50" height="50" relative="1" as="geometry">
                        <mxPoint x="370" y="520" as="sourcePoint"/>
                        <mxPoint x="420" y="470" as="targetPoint"/>
                        <mxPoint as="offset"/>
                    </mxGeometry>
                </mxCell>
                <mxCell id="58" value="" style="edgeStyle=none;html=1;" parent="1" source="53" target="54" edge="1">
                    <mxGeometry relative="1" as="geometry"/>
                </mxCell>
                <mxCell id="53" value="&lt;font style=&quot;font-size: 18px;&quot;&gt;Pré Processamento&lt;/font&gt;" style="rounded=0;whiteSpace=wrap;html=1;" parent="1" vertex="1">
                    <mxGeometry x="340" y="690" width="140" height="60" as="geometry"/>
                </mxCell>
                <mxCell id="59" value="" style="edgeStyle=none;html=1;" parent="1" source="54" target="55" edge="1">
                    <mxGeometry relative="1" as="geometry"/>
                </mxCell>
                <mxCell id="54" value="&lt;font style=&quot;font-size: 18px;&quot;&gt;Treinamento de Modelo&lt;/font&gt;" style="rounded=0;whiteSpace=wrap;html=1;" parent="1" vertex="1">
                    <mxGeometry x="340" y="796.24" width="140" height="60" as="geometry"/>
                </mxCell>
                <mxCell id="55" value="&lt;font style=&quot;font-size: 20px;&quot;&gt;Deployment&lt;/font&gt;" style="rounded=0;whiteSpace=wrap;html=1;" parent="1" vertex="1">
                    <mxGeometry x="150" y="796.24" width="130" height="60" as="geometry"/>
                </mxCell>
                <mxCell id="60" style="edgeStyle=none;html=1;strokeWidth=5;" parent="1" source="56" target="48" edge="1">
                    <mxGeometry relative="1" as="geometry"/>
                </mxCell>
                <mxCell id="56" value="&lt;font style=&quot;font-size: 18px;&quot;&gt;Cientista de Dados&lt;/font&gt;" style="shape=actor;whiteSpace=wrap;html=1;verticalAlign=bottom;" parent="1" vertex="1">
                    <mxGeometry x="-270" y="700" width="90" height="130" as="geometry"/>
                </mxCell>
                <mxCell id="63" value="&lt;font style=&quot;font-size: 25px;&quot;&gt;Banco de Dados&lt;/font&gt;" style="rounded=0;whiteSpace=wrap;html=1;verticalAlign=top;" parent="1" vertex="1">
                    <mxGeometry x="740" y="650" width="300" height="230" as="geometry"/>
                </mxCell>
                <mxCell id="65" value="" style="endArrow=classic;startArrow=classic;html=1;entryX=0;entryY=0.5;entryDx=0;entryDy=0;exitX=1;exitY=0.5;exitDx=0;exitDy=0;strokeWidth=5;" parent="1" source="48" target="63" edge="1">
                    <mxGeometry width="50" height="50" relative="1" as="geometry">
                        <mxPoint x="640" y="830" as="sourcePoint"/>
                        <mxPoint x="690" y="780" as="targetPoint"/>
                    </mxGeometry>
                </mxCell>
                <mxCell id="67" value="&lt;font style=&quot;font-size: 30px;&quot;&gt;Sistema de Previsão para Vitivinicultura&lt;/font&gt;" style="rounded=0;whiteSpace=wrap;html=1;verticalAlign=top;" parent="1" vertex="1">
                    <mxGeometry x="40" y="1000" width="540" height="350" as="geometry"/>
                </mxCell>
                <mxCell id="70" style="edgeStyle=none;html=1;entryX=0;entryY=0.5;entryDx=0;entryDy=0;strokeWidth=5;" parent="1" source="69" target="67" edge="1">
                    <mxGeometry relative="1" as="geometry"/>
                </mxCell>
                <mxCell id="69" value="&lt;font style=&quot;font-size: 20px;&quot;&gt;Usuario Final&lt;/font&gt;" style="shape=actor;whiteSpace=wrap;html=1;verticalAlign=bottom;" parent="1" vertex="1">
                    <mxGeometry x="-270" y="1115" width="85" height="120" as="geometry"/>
                </mxCell>
                <mxCell id="71" value="" style="aspect=fixed;perimeter=ellipsePerimeter;html=1;align=center;shadow=0;dashed=0;spacingTop=3;image;image=img/lib/active_directory/databases.svg;fontSize=10;" vertex="1" parent="1">
                    <mxGeometry x="833.88" y="730" width="112.24" height="110" as="geometry"/>
                </mxCell>
                <mxCell id="72" value="Sitemap" style="html=1;strokeColor=none;fillColor=#0079D6;labelPosition=center;verticalLabelPosition=middle;verticalAlign=top;align=center;fontSize=12;outlineConnect=0;spacingTop=-6;fontColor=#FFFFFF;sketch=0;shape=mxgraph.sitemap.sitemap;" vertex="1" parent="1">
                    <mxGeometry x="768.95" y="130" width="240" height="150" as="geometry"/>
                </mxCell>
                <mxCell id="73" value="Chart" style="html=1;strokeColor=none;fillColor=#0079D6;labelPosition=center;verticalLabelPosition=middle;verticalAlign=top;align=center;fontSize=12;outlineConnect=0;spacingTop=-6;fontColor=#FFFFFF;sketch=0;shape=mxgraph.sitemap.chart;" vertex="1" parent="1">
                    <mxGeometry x="130" y="1100" width="340" height="200" as="geometry"/>
                </mxCell>
            </root>
        </mxGraphModel>
    </diagram>
</mxfile>